<svg xmlns="http://www.w3.org/2000/svg" viewBox="0 0 24 24">
  <path fill="currentColor" d="M15.07 2H8.93C3.33 2 2 3.33 2 8.93v6.14C2 20.67 3.33 22 8.93 22h6.14C20.67 22 22 20.67 22 15.07V8.93C22 3.33 20.67 2 15.07 2zm3.77 14.43h-1.5c-.55 0-.72-.35-1.7-1.2-.82-.7-1.18-.8-1.38-.8-.28 0-.38.1-.38.5v1.12c0 .35-.1.55-1.1.55-1.6 0-3.45-.95-4.75-2.7-1.68-2.15-2.1-3.78-2.1-3.98 0-.2.1-.4.45-.4h1.5c.33 0 .5.15.65.52.7 1.5 1.88 2.82 2.4 2.82.2 0 .3-.1.3-.65v-2.3c0-.55-.15-.8-.65-1.05-.35-.2-.75-.35-1.2-.35-.25 0-.45.03-.6.08.45-1.5 1.35-2.05 2.5-2.05h1.25c.4 0 .5.2.5.52v3.25c0 .35.15.45.35.45.1 0 .2-.05.3-.15.5-.5 1.35-1.75 1.35-1.75.15-.25.3-.35.55-.35h1.9c.42 0 .5.2.4.5-.2.6-2 2.3-2 2.3-.15.2-.25.3-.25.45 0 .1.05.25.4.25h1.45c.45 0 .6-.2.75-.45.75-1.1 1.65-2.8 1.65-2.8.1-.25.3-.35.55-.35h1.6c.5 0 .6.25.5.55-.25.8-2.05 2.45-2.05 2.45-.15.15-.2.25-.2.4 0 .2.1.35.35.6.4.45 1.2 1.25 1.2 1.25.25.25.4.55-.1.55z"/>
</svg>